<svg id="visual" viewBox="0 0 900 600" width="900" height="600" xmlns="http://www.w3.org/2000/svg" xmlns:xlink="http://www.w3.org/1999/xlink" version="1.1"><rect x="0" y="0" width="900" height="600" fill="#fff"></rect><defs><linearGradient id="grad1_0" x1="33.3%" y1="0%" x2="100%" y2="100%"><stop offset="20%" stop-color="#97f8ff" stop-opacity="1"></stop><stop offset="80%" stop-color="#97f8ff" stop-opacity="1"></stop></linearGradient></defs><defs><linearGradient id="grad1_1" x1="33.3%" y1="0%" x2="100%" y2="100%"><stop offset="20%" stop-color="#97f8ff" stop-opacity="1"></stop><stop offset="80%" stop-color="#befbff" stop-opacity="1"></stop></linearGradient></defs><defs><linearGradient id="grad1_2" x1="33.3%" y1="0%" x2="100%" y2="100%"><stop offset="20%" stop-color="#e0fdff" stop-opacity="1"></stop><stop offset="80%" stop-color="#befbff" stop-opacity="1"></stop></linearGradient></defs><defs><linearGradient id="grad1_3" x1="33.3%" y1="0%" x2="100%" y2="100%"><stop offset="20%" stop-color="#e0fdff" stop-opacity="1"></stop><stop offset="80%" stop-color="#ffffff" stop-opacity="1"></stop></linearGradient></defs><defs><linearGradient id="grad2_0" x1="0%" y1="0%" x2="66.7%" y2="100%"><stop offset="20%" stop-color="#97f8ff" stop-opacity="1"></stop><stop offset="80%" stop-color="#97f8ff" stop-opacity="1"></stop></linearGradient></defs><defs><linearGradient id="grad2_1" x1="0%" y1="0%" x2="66.7%" y2="100%"><stop offset="20%" stop-color="#befbff" stop-opacity="1"></stop><stop offset="80%" stop-color="#97f8ff" stop-opacity="1"></stop></linearGradient></defs><defs><linearGradient id="grad2_2" x1="0%" y1="0%" x2="66.7%" y2="100%"><stop offset="20%" stop-color="#befbff" stop-opacity="1"></stop><stop offset="80%" stop-color="#e0fdff" stop-opacity="1"></stop></linearGradient></defs><defs><linearGradient id="grad2_3" x1="0%" y1="0%" x2="66.7%" y2="100%"><stop offset="20%" stop-color="#ffffff" stop-opacity="1"></stop><stop offset="80%" stop-color="#e0fdff" stop-opacity="1"></stop></linearGradient></defs><g transform="translate(900, 0)"><path d="M0 486.7C-62.9 465.5 -125.7 444.3 -169.1 408.4C-212.6 372.4 -236.5 321.6 -286.4 286.4C-336.2 251.1 -412 231.4 -449.7 186.3C-487.4 141.1 -487.1 70.6 -486.7 0L0 0Z" fill="#f0feff"></path><path d="M0 365.1C-47.1 349.2 -94.3 333.3 -126.9 306.3C-159.4 279.3 -177.4 241.2 -214.8 214.8C-252.2 188.4 -309 173.6 -337.3 139.7C-365.6 105.8 -365.3 52.9 -365.1 0L0 0Z" fill="#d0fcff"></path><path d="M0 243.4C-31.4 232.8 -62.9 222.2 -84.6 204.2C-106.3 186.2 -118.3 160.8 -143.2 143.2C-168.1 125.6 -206 115.7 -224.8 93.1C-243.7 70.6 -243.5 35.3 -243.4 0L0 0Z" fill="#abf9ff"></path><path d="M0 121.7C-15.7 116.4 -31.4 111.1 -42.3 102.1C-53.1 93.1 -59.1 80.4 -71.6 71.6C-84.1 62.8 -103 57.9 -112.4 46.6C-121.9 35.3 -121.8 17.6 -121.7 0L0 0Z" fill="#97f8ff"></path></g><g transform="translate(0, 600)"><path d="M0 -486.7C66.1 -481.9 132.3 -477.1 186.3 -449.7C240.3 -422.3 282.2 -372.3 326 -326C369.8 -279.7 415.4 -237 442.5 -183.3C469.6 -129.6 478.2 -64.8 486.7 0L0 0Z" fill="#f0feff"></path><path d="M0 -365.1C49.6 -361.4 99.2 -357.8 139.7 -337.3C180.2 -316.7 211.6 -279.2 244.5 -244.5C277.3 -209.7 311.6 -177.8 331.9 -137.5C352.2 -97.2 358.6 -48.6 365.1 0L0 0Z" fill="#d0fcff"></path><path d="M0 -243.4C33.1 -241 66.1 -238.6 93.1 -224.8C120.1 -211.1 141.1 -186.1 163 -163C184.9 -139.8 207.7 -118.5 221.3 -91.7C234.8 -64.8 239.1 -32.4 243.4 0L0 0Z" fill="#abf9ff"></path><path d="M0 -121.7C16.5 -120.5 33.1 -119.3 46.6 -112.4C60.1 -105.6 70.5 -93.1 81.5 -81.5C92.4 -69.9 103.9 -59.3 110.6 -45.8C117.4 -32.4 119.5 -16.2 121.7 0L0 0Z" fill="#97f8ff"></path></g></svg>