<?xml version="1.0" standalone="no"?>
<!DOCTYPE svg PUBLIC "-//W3C//DTD SVG 20010904//EN"
 "http://www.w3.org/TR/2001/REC-SVG-20010904/DTD/svg10.dtd">
<svg version="1.0" xmlns="http://www.w3.org/2000/svg"
 width="1336.000000pt" height="1336.000000pt" viewBox="0 0 1336.000000 1336.000000"
 preserveAspectRatio="xMidYMid meet">
<metadata>
Created by potrace 1.14, written by Peter Selinger 2001-2017
</metadata>
<g transform="translate(0.000000,1336.000000) scale(0.100000,-0.100000)"
fill="#000000" stroke="none">
<path d="M10773 11188 c-9 -12 -54 -87 -103 -173 -9 -16 -65 -112 -123 -213
-59 -100 -107 -187 -107 -192 0 -6 -4 -10 -10 -10 -5 0 -10 -4 -10 -10 0 -5
-26 -54 -58 -107 -66 -111 -170 -289 -192 -330 -8 -16 -28 -50 -45 -78 -52
-89 -64 -110 -71 -127 -3 -10 -10 -18 -14 -18 -5 0 -13 -12 -19 -27 -6 -16
-22 -46 -36 -68 -14 -22 -28 -47 -32 -55 -3 -8 -25 -46 -48 -85 -23 -38 -74
-126 -114 -195 -40 -69 -76 -132 -81 -140 -73 -124 -155 -266 -155 -270 0 -3
-28 -51 -63 -108 -34 -57 -62 -105 -62 -108 0 -3 -8 -18 -18 -32 -11 -15 -36
-58 -57 -97 -20 -38 -43 -77 -49 -85 -6 -8 -22 -35 -36 -60 -13 -25 -61 -109
-107 -187 -46 -79 -83 -147 -83 -153 0 -5 -4 -10 -9 -10 -5 0 -11 -8 -14 -17
-4 -10 -18 -38 -33 -63 -14 -25 -56 -97 -93 -160 -36 -63 -68 -117 -72 -120
-3 -3 -8 -9 -10 -15 -5 -12 -90 -162 -130 -230 -16 -27 -33 -57 -36 -65 -4 -8
-9 -17 -12 -20 -4 -3 -12 -16 -18 -30 -7 -14 -24 -43 -38 -65 -14 -22 -28 -47
-32 -55 -4 -8 -37 -66 -75 -129 -37 -63 -68 -118 -68 -122 0 -4 -5 -9 -10 -11
-6 -2 -13 -20 -17 -41 -6 -38 15 -77 42 -77 6 0 22 -11 35 -25 l24 -26 -54 24
c-51 23 -87 38 -100 42 -103 32 -139 37 -250 38 -112 1 -180 -7 -242 -29 -22
-7 -42 -13 -46 -12 -4 1 -15 -2 -24 -5 -46 -17 -54 -20 -67 -23 -8 -1 -56 -23
-108 -48 -235 -114 -422 -271 -581 -490 -79 -108 -90 -125 -143 -235 -108
-224 -150 -400 -150 -631 0 -145 15 -212 72 -317 41 -76 151 -196 191 -209 10
-3 18 -10 18 -15 0 -5 3 -8 8 -7 4 1 21 -5 37 -14 78 -40 190 -62 320 -61 61
0 170 8 170 13 0 1 11 3 25 6 44 8 182 55 244 83 34 15 76 34 94 42 17 7 32
17 32 21 0 5 9 8 19 8 11 0 21 3 23 8 2 4 43 34 93 67 151 101 316 280 432
470 51 83 154 321 178 410 15 54 16 60 21 95 3 19 10 53 14 74 13 60 10 258
-4 320 -8 31 -12 56 -9 56 2 0 -3 10 -11 23 -8 12 -14 24 -14 27 1 3 -11 29
-26 59 -29 58 -71 116 -123 170 -18 18 -33 35 -33 38 0 10 55 -31 88 -64 17
-19 32 -31 32 -27 0 3 6 1 14 -5 18 -15 24 -6 72 94 21 44 42 82 46 83 4 2 8
8 8 14 0 31 203 259 218 244 2 -3 14 4 25 15 11 10 39 28 61 38 63 30 170 77
179 79 59 13 424 209 492 264 6 5 35 27 65 51 105 80 281 250 340 328 14 18
33 42 43 53 74 86 224 326 306 491 51 102 113 238 127 279 8 22 19 45 25 53 6
7 9 13 6 13 -3 0 1 17 10 38 16 37 99 271 102 285 0 4 1 8 2 10 0 1 2 9 4 17
2 8 11 42 20 75 9 33 21 83 26 110 6 28 13 57 16 65 3 8 7 22 8 30 1 8 5 29 9
45 10 47 28 157 32 194 2 19 6 50 9 68 18 118 27 635 12 723 -3 19 -8 62 -12
95 -3 33 -7 74 -10 90 -2 17 -6 46 -9 65 -2 20 -8 48 -11 62 -4 15 -8 42 -10
60 -1 18 -5 40 -7 48 -3 8 -14 42 -24 75 -19 60 -41 79 -61 53z m-1247 -2839
c63 -24 100 -63 109 -119 4 -23 5 -43 3 -46 -3 -2 -55 21 -117 52 -105 52
-127 61 -158 63 -27 2 -11 31 27 49 53 24 73 24 136 1z m-158 -213 c48 -25
108 -50 135 -57 49 -14 58 -27 31 -50 -35 -29 -59 -35 -108 -27 -64 10 -120
49 -140 99 -16 39 -21 79 -11 79 3 0 45 -20 93 -44z m-1295 -1199 c9 -4 23 -9
31 -11 28 -9 69 -77 80 -134 16 -79 12 -239 -9 -336 -2 -12 -7 -37 -10 -56
-17 -117 -89 -405 -122 -490 -3 -8 -7 -19 -8 -25 -4 -13 -42 -111 -59 -150
-54 -122 -86 -189 -118 -249 -21 -38 -38 -73 -38 -77 0 -5 -4 -9 -10 -9 -5 0
-10 -5 -10 -10 0 -13 -59 -105 -86 -136 -11 -12 -30 -35 -44 -51 -30 -36 -67
-61 -100 -67 -14 -2 -27 -5 -30 -6 -3 -1 -21 -1 -40 0 -89 5 -159 64 -180 152
-12 48 -9 244 5 308 3 14 7 43 10 65 5 41 6 47 29 151 11 53 48 191 56 209 4
11 27 76 50 145 81 238 205 508 289 630 27 40 129 140 139 138 4 -1 14 1 22 5
8 3 22 7 30 10 21 6 102 2 123 -6z"/>
<path d="M8229 11178 c0 -7 -2 -20 -4 -28 -12 -47 -25 -115 -40 -210 -3 -19
-8 -48 -11 -65 -3 -16 -7 -43 -10 -60 -2 -16 -5 -39 -8 -50 -2 -11 -7 -45 -11
-75 -3 -30 -8 -66 -10 -80 -19 -122 -26 -618 -11 -735 3 -27 9 -70 11 -95 16
-143 68 -382 118 -545 12 -38 22 -72 22 -75 2 -7 5 -15 55 -150 72 -194 188
-439 289 -613 28 -49 51 -93 51 -98 0 -5 5 -9 12 -9 6 0 8 -3 5 -6 -7 -8 36
-44 52 -44 18 0 168 156 211 220 8 12 23 31 33 42 9 12 17 24 17 28 0 3 8 15
18 26 9 11 22 29 29 40 7 10 41 65 77 121 35 56 67 111 71 122 3 12 11 21 16
21 5 0 9 4 9 8 0 5 19 45 43 89 113 209 124 273 64 394 -57 115 -124 240 -136
252 -6 6 -11 19 -11 28 0 10 -4 19 -8 21 -5 2 -24 32 -44 68 -65 122 -188 340
-208 370 -6 8 -13 22 -17 30 -4 8 -65 114 -136 235 -71 121 -137 234 -146 250
-9 17 -19 32 -23 33 -5 2 -8 8 -8 14 0 5 -12 28 -27 51 -16 23 -33 51 -40 62
-6 11 -43 72 -82 135 -39 63 -91 149 -116 190 -43 71 -68 100 -87 100 -4 0 -8
-6 -9 -12z"/>
<path d="M1586 8021 c-21 -4 -33 -15 -43 -38 -12 -31 -11 -34 11 -49 14 -8 38
-17 53 -19 167 -21 209 -34 245 -73 44 -45 51 -100 33 -237 -9 -72 -11 -80
-25 -125 -6 -19 -13 -44 -15 -55 -3 -11 -14 -51 -26 -90 -11 -38 -21 -74 -23
-80 -1 -5 -8 -30 -15 -55 -7 -25 -14 -52 -16 -60 -2 -8 -8 -27 -14 -42 -6 -16
-9 -28 -6 -28 2 0 -2 -15 -10 -34 -8 -18 -16 -44 -19 -57 -9 -43 -36 -137 -86
-301 -5 -16 -7 -28 -5 -28 2 0 -3 -16 -11 -35 -8 -19 -14 -38 -14 -42 0 -5 -7
-33 -16 -63 -9 -30 -18 -62 -19 -70 -2 -8 -4 -16 -5 -17 -2 -2 -4 -7 -5 -13
-1 -5 -3 -11 -5 -12 -1 -2 -3 -11 -5 -20 -2 -10 -17 -66 -35 -125 -18 -59 -33
-114 -35 -122 -7 -29 -46 -166 -52 -181 -3 -8 -7 -19 -8 -25 -1 -5 -3 -13 -5
-17 -1 -5 -4 -12 -5 -18 -1 -5 -3 -11 -5 -12 -1 -2 -3 -10 -5 -18 -9 -47 -109
-380 -121 -404 -8 -16 -14 -33 -14 -38 0 -16 -79 -133 -107 -158 -67 -60 -156
-98 -252 -106 -36 -4 -74 -10 -83 -15 -20 -11 -34 -67 -20 -81 20 -20 1284
-14 1522 7 123 11 166 15 185 19 11 2 42 7 69 10 27 4 53 9 57 12 4 2 22 7 41
10 49 7 73 12 76 14 1 2 5 3 10 4 4 2 27 8 52 16 25 7 50 14 55 15 22 5 221
88 235 99 8 6 38 22 65 36 28 14 55 28 60 32 6 5 49 35 96 69 115 80 207 163
301 270 26 30 63 72 82 94 20 22 36 43 36 47 0 5 9 18 20 31 34 39 154 235
201 327 25 50 77 182 83 212 3 13 8 34 11 48 42 165 48 383 15 569 -6 30 -8
56 -5 59 2 3 0 13 -6 23 -5 10 -11 31 -13 46 -8 53 -17 87 -26 98 -4 5 -8 12
-7 15 2 13 -28 100 -35 100 -4 0 -8 10 -8 23 0 12 -9 33 -20 47 -11 14 -20 29
-20 34 0 9 -67 110 -97 147 -71 86 -194 186 -298 242 -89 49 -271 114 -370
133 -11 2 -31 6 -45 9 -79 18 -137 27 -275 41 -78 8 -1221 12 -1259 5z m1259
-222 c39 -11 89 -29 111 -40 85 -38 201 -143 240 -217 10 -21 21 -39 24 -42
13 -12 71 -150 63 -150 -3 0 -1 -6 4 -12 11 -14 28 -76 48 -178 19 -94 26
-343 12 -440 -21 -147 -24 -166 -42 -245 -2 -11 -6 -31 -9 -45 -3 -14 -9 -38
-13 -55 -4 -16 -7 -32 -8 -35 -10 -48 -68 -218 -100 -295 -149 -356 -433 -663
-700 -754 -110 -38 -178 -48 -291 -46 -164 2 -229 39 -235 131 -3 41 -3 42
102 419 11 39 22 77 24 85 2 8 4 15 5 15 1 0 3 7 5 15 1 8 8 35 16 60 18 64
16 59 34 125 9 33 19 67 22 75 6 16 10 29 17 58 3 9 5 17 6 17 1 0 3 7 5 15
10 42 16 60 35 125 12 39 23 77 25 85 7 32 57 206 62 220 3 8 7 20 8 26 2 7
12 43 24 80 21 70 53 181 57 199 1 6 28 98 59 205 31 107 58 200 59 205 16 58
20 72 30 84 6 8 9 15 7 15 -7 2 21 110 32 124 5 6 7 12 4 12 -3 0 -1 15 4 33
6 17 12 39 14 48 9 43 37 90 57 98 32 12 103 4 183 -20z"/>
<path d="M10170 7811 c0 -18 -170 -178 -219 -205 -9 -5 -18 -12 -21 -16 -8
-11 -98 -70 -107 -70 -4 -1 -19 -10 -32 -21 l-24 -20 23 -24 c13 -14 28 -25
33 -25 5 0 19 -8 32 -17 12 -10 33 -25 45 -33 158 -106 304 -242 407 -380 65
-86 71 -124 28 -170 -125 -133 -170 -336 -142 -645 8 -83 13 -115 42 -247 13
-61 82 -243 122 -323 39 -79 147 -261 163 -275 3 -3 25 -32 49 -64 51 -68 191
-215 191 -201 0 6 5 2 10 -7 10 -17 126 -97 188 -131 42 -22 174 -75 204 -81
13 -3 34 -8 48 -11 14 -3 36 -9 50 -12 58 -13 215 -5 276 14 61 20 157 77 198
118 46 46 117 148 121 175 0 3 6 14 12 25 32 57 52 178 53 315 1 230 -36 428
-122 650 -20 51 -96 199 -118 231 -11 15 -20 30 -20 34 0 8 -53 79 -62 83 -5
2 -8 8 -8 14 0 14 -108 143 -184 220 -68 68 -167 149 -198 161 -10 3 -18 11
-18 17 0 5 -6 10 -14 10 -8 0 -30 9 -48 20 -64 38 -197 82 -250 84 -10 0 -18
3 -18 6 0 3 -28 6 -63 7 -114 4 -117 6 -168 86 -38 59 -128 205 -274 442 -61
100 -125 214 -125 224 0 6 -4 11 -9 11 -5 0 -11 9 -14 20 -5 19 -37 29 -37 11z
m774 -1271 c5 -5 16 -10 23 -10 21 0 93 -49 100 -68 4 -9 12 -22 17 -28 23
-23 86 -117 126 -189 57 -102 68 -124 64 -128 -2 -2 2 -10 11 -17 8 -7 15 -20
15 -29 0 -9 6 -25 14 -36 12 -18 74 -193 80 -226 1 -8 5 -23 9 -34 8 -24 17
-70 23 -110 27 -179 27 -233 1 -284 -30 -59 -81 -85 -165 -88 -40 -1 -74 4
-95 15 -63 31 -166 151 -238 278 -45 80 -87 164 -82 164 3 0 1 6 -5 13 -10 12
-72 169 -76 190 -1 7 -5 18 -10 25 -4 7 -9 23 -11 35 -2 12 -9 42 -15 67 -7
25 -13 54 -16 65 -17 87 -21 116 -20 153 1 23 -2 42 -5 42 -3 0 -2 28 3 62 9
70 43 123 91 143 34 14 145 11 161 -5z"/>
<path d="M5207 7084 c-1 -1 -24 -5 -51 -8 -27 -4 -85 -14 -129 -22 -44 -8 -94
-17 -111 -19 -17 -1 -42 -5 -56 -9 -14 -3 -41 -8 -60 -10 -19 -3 -85 -14 -145
-25 -61 -11 -120 -22 -132 -24 -33 -5 -63 -37 -63 -67 0 -36 16 -47 70 -48 98
-3 148 -51 135 -128 -3 -22 -8 -51 -10 -66 -2 -15 -11 -49 -19 -77 -8 -27 -12
-52 -9 -55 4 -3 1 -6 -6 -6 -7 0 -10 -4 -7 -9 4 -5 2 -21 -4 -35 -5 -15 -12
-37 -14 -49 -2 -12 -12 -49 -22 -82 -10 -33 -18 -67 -19 -75 0 -8 -10 -44 -22
-80 -12 -36 -24 -77 -27 -90 -6 -30 -65 -229 -73 -250 -4 -8 -7 -22 -8 -30 -1
-8 -5 -22 -8 -30 -4 -8 -8 -26 -11 -40 -2 -14 -16 -68 -30 -120 -14 -52 -27
-107 -30 -123 -3 -15 -7 -35 -10 -45 -18 -64 -26 -211 -13 -259 11 -44 41 -89
84 -130 97 -93 263 -105 415 -31 127 61 320 230 434 380 26 34 51 65 54 68 3
3 47 61 97 130 96 131 123 164 128 158 2 -2 -1 -23 -6 -48 -5 -25 -11 -54 -13
-65 -2 -11 -13 -56 -26 -100 -13 -44 -23 -86 -23 -92 0 -7 -3 -13 -7 -13 -3 0
-6 -8 -6 -17 0 -10 -4 -43 -8 -73 -36 -249 45 -366 262 -378 80 -4 139 5 199
30 15 6 30 12 33 13 84 29 282 205 329 293 6 11 17 26 24 34 18 18 84 128 96
160 20 52 -67 93 -99 47 -77 -109 -165 -210 -199 -228 -20 -11 -59 3 -67 24
-6 15 21 145 36 175 5 8 10 29 13 45 6 31 63 229 74 255 3 8 8 24 10 35 2 11
10 41 18 66 9 25 18 54 20 65 3 10 14 51 25 89 12 39 23 77 25 85 3 13 49 170
100 340 7 25 20 71 29 103 9 32 32 113 52 180 45 153 50 176 46 205 -4 23 -4
23 -115 17 -62 -4 -118 -6 -124 -6 -30 2 -43 2 -150 -3 -149 -6 -165 -15 -192
-104 -12 -37 -23 -76 -25 -87 -3 -11 -20 -69 -40 -130 -31 -98 -57 -191 -59
-205 -2 -26 -55 -158 -88 -219 -198 -360 -408 -645 -574 -776 -27 -22 -52 -43
-55 -46 -3 -4 -24 -12 -47 -19 -37 -11 -45 -11 -69 4 -32 22 -31 29 25 221 23
77 50 172 61 210 10 39 31 111 45 160 14 50 27 97 29 105 10 43 128 458 137
480 5 14 11 34 13 45 2 11 27 100 55 199 49 173 59 225 44 227 -14 2 -134 5
-136 3z"/>
<path d="M7598 4684 c-3 -2 -29 -7 -59 -9 -64 -6 -74 -8 -159 -30 -36 -9 -69
-18 -75 -20 -5 -1 -23 -7 -38 -13 -15 -7 -39 -15 -53 -18 -13 -3 -26 -10 -29
-14 -2 -4 -30 -20 -60 -35 -33 -16 -85 -56 -126 -97 -121 -120 -158 -237 -108
-343 22 -46 91 -115 116 -115 7 0 13 -5 13 -12 0 -6 3 -9 6 -5 4 3 25 -1 47
-10 43 -18 178 -22 252 -9 63 12 85 14 85 8 0 -11 -91 -159 -115 -186 -14 -16
-25 -32 -25 -36 0 -9 -158 -169 -190 -193 -81 -60 -201 -111 -290 -122 -82
-11 -210 -13 -216 -3 -3 5 -10 6 -15 3 -13 -8 -89 36 -89 51 0 7 11 24 24 37
30 30 25 64 -11 78 -43 16 -87 -27 -78 -77 2 -11 4 -24 4 -30 1 -15 57 -75 73
-78 7 -2 27 -9 43 -16 34 -15 225 -20 290 -7 99 19 243 70 257 91 4 6 8 7 8 3
0 -4 34 15 75 43 77 52 213 182 243 232 9 15 20 28 24 28 4 0 8 6 8 13 0 8 9
22 20 32 11 10 20 22 20 26 0 15 86 143 111 166 13 12 60 38 104 59 142 67
275 162 396 283 120 119 166 199 150 258 -23 88 -212 37 -373 -101 -90 -77
-258 -262 -258 -284 0 -5 -7 -12 -15 -16 -8 -3 -15 -11 -15 -18 0 -7 -14 -29
-30 -48 -16 -19 -30 -40 -30 -46 0 -23 -78 -82 -131 -99 -64 -22 -241 -25
-307 -6 -53 15 -125 82 -140 131 -28 86 6 196 83 274 51 52 107 96 122 96 6 0
13 3 15 8 4 10 103 58 158 77 70 25 159 41 235 44 71 3 110 15 100 31 -8 14
-41 30 -47 24z m573 -73 c32 -2 11 -44 -62 -119 -41 -42 -99 -97 -128 -122
-29 -25 -59 -50 -66 -57 -30 -29 -278 -203 -290 -203 -23 0 78 170 155 261
118 139 282 252 355 244 11 -1 27 -3 36 -4z"/>
<path d="M9261 4356 c-111 -118 -392 -400 -461 -461 -36 -32 -83 -74 -105 -94
-67 -59 -157 -135 -179 -151 -12 -8 -25 -19 -31 -25 -36 -41 -159 -126 -209
-145 -20 -7 -24 -6 -19 5 3 8 9 15 14 15 5 0 9 7 9 15 0 8 5 15 10 15 6 0 10
5 10 10 0 6 10 21 23 34 12 13 36 41 54 62 31 39 54 66 99 116 13 15 24 31 24
35 0 3 7 14 16 24 25 28 8 42 -44 36 -26 -3 -48 -10 -50 -16 -5 -15 -28 -14
-55 3 -36 24 -151 15 -217 -16 -56 -26 -64 -32 -179 -128 -36 -30 -70 -58 -76
-62 -5 -4 -23 -18 -40 -31 -16 -13 -65 -47 -107 -75 -69 -45 -79 -49 -93 -36
-16 17 -11 33 22 69 10 11 40 47 67 80 27 33 54 65 60 70 7 6 29 32 51 59 40
50 46 57 120 136 47 50 105 79 158 80 41 0 49 22 11 29 -55 10 -51 29 26 117
28 31 50 63 50 70 0 17 -27 24 -68 19 -36 -5 -33 -2 -116 -98 -78 -90 -108
-110 -168 -116 -12 -1 -9 -31 2 -31 15 0 -13 -27 -105 -100 -100 -80 -188
-167 -175 -175 10 -6 56 21 97 58 35 31 36 16 3 -20 -17 -18 -30 -35 -30 -38
0 -3 -12 -23 -26 -44 -45 -68 -74 -152 -62 -175 37 -69 108 -56 259 48 89 61
85 62 104 -22 15 -72 55 -78 173 -28 l80 34 13 -26 c26 -50 51 -59 104 -37 20
8 96 58 125 82 100 82 216 171 219 168 4 -5 -45 -92 -65 -115 -7 -9 -16 -35
-18 -58 -5 -35 -2 -45 20 -67 29 -30 50 -31 101 -7 54 24 72 39 283 232 15 14
39 34 55 45 15 11 32 25 39 30 21 19 86 54 86 47 0 -9 -24 -41 -65 -86 -16
-18 -59 -65 -95 -106 -36 -40 -72 -80 -80 -89 -8 -9 -20 -28 -27 -43 -12 -26
-11 -27 21 -34 22 -4 44 0 62 9 27 14 41 26 131 108 21 19 63 54 93 79 30 25
57 48 58 53 2 4 8 5 13 1 5 -3 9 -1 9 4 0 5 24 25 53 44 71 48 76 50 109 54
l30 4 -30 -40 c-16 -22 -60 -73 -98 -114 -95 -100 -126 -136 -147 -168 -17
-27 -17 -28 0 -29 10 -1 31 -2 46 -3 27 -3 64 19 129 76 95 84 267 206 362
258 70 39 74 22 12 -46 -102 -111 -118 -131 -142 -171 -19 -32 -24 -50 -19
-72 7 -32 42 -61 74 -61 30 0 118 51 185 107 22 18 45 33 52 33 7 0 15 -18 19
-41 4 -23 19 -55 34 -71 24 -28 31 -30 68 -24 22 4 67 25 99 46 33 22 62 40
65 40 4 0 10 -15 13 -34 14 -76 58 -72 195 21 53 36 98 69 99 74 9 23 21 4 27
-43 6 -38 15 -60 37 -81 26 -27 33 -29 81 -24 54 6 115 23 132 38 5 5 17 9 27
9 9 0 21 6 25 13 4 6 19 18 33 25 14 7 39 25 56 40 17 15 49 42 72 60 23 19
52 44 65 55 14 12 35 31 48 41 37 30 153 130 164 141 6 6 19 18 29 25 18 13
19 13 11 0 -5 -8 -13 -19 -17 -25 -5 -5 -30 -38 -56 -72 -27 -34 -80 -97 -119
-140 -89 -97 -153 -178 -153 -191 0 -14 41 -23 70 -15 28 7 55 26 115 81 63
58 135 115 205 163 36 24 67 46 70 49 32 33 146 85 154 71 3 -4 -36 -50 -87
-102 -96 -97 -127 -145 -127 -198 0 -35 33 -71 64 -71 21 0 126 45 136 58 3 4
24 20 46 35 77 52 186 155 178 168 -7 12 -34 11 -34 -1 0 -5 -4 -10 -10 -10
-5 0 -18 -8 -28 -17 -10 -10 -40 -36 -66 -58 -27 -22 -53 -44 -60 -50 -37 -31
-127 -76 -138 -69 -4 3 -8 0 -8 -6 0 -6 -4 -8 -10 -5 -19 12 -10 36 26 68 119
106 144 131 159 164 54 114 -7 181 -111 122 -21 -12 -57 -32 -79 -43 -22 -12
-42 -23 -45 -26 -10 -10 -52 -31 -55 -28 -2 2 10 19 26 38 17 19 42 49 56 65
14 17 51 59 83 95 31 36 68 78 81 94 13 16 29 34 34 40 6 6 56 63 110 126 55
63 107 122 115 131 67 70 83 98 58 100 -7 1 -26 3 -42 5 -27 3 -46 -13 -175
-141 -149 -147 -209 -204 -252 -240 -30 -26 -120 -105 -175 -154 -22 -20 -60
-52 -84 -71 -24 -19 -51 -42 -60 -50 -8 -8 -58 -50 -110 -93 -52 -43 -111 -92
-130 -108 -19 -16 -40 -29 -47 -29 -7 0 -13 -4 -13 -8 0 -6 -46 -30 -70 -36
-3 -1 -9 -4 -15 -8 -5 -3 -34 -9 -62 -12 -45 -4 -54 -2 -63 13 -27 52 155 281
223 281 10 0 17 4 17 9 0 5 14 11 30 13 30 5 30 4 11 -16 -40 -44 21 -91 70
-53 61 47 41 120 -36 131 -54 8 -182 -38 -255 -93 -32 -24 -148 -119 -160
-131 -4 -5 -49 -40 -108 -85 -7 -5 -22 -18 -33 -27 -10 -10 -25 -18 -32 -18
-8 0 -17 -3 -21 -7 -3 -4 -16 -8 -28 -10 -15 -2 -18 0 -11 9 6 7 26 33 44 58
30 40 61 77 94 114 49 55 125 164 125 180 0 4 -8 3 -17 -2 -10 -5 -40 -7 -68
-5 -170 13 -207 12 -264 -9 -67 -25 -117 -59 -192 -130 -30 -29 -70 -64 -89
-78 -18 -14 -38 -30 -44 -35 -6 -6 -33 -26 -61 -45 -27 -19 -52 -37 -55 -40
-22 -22 -49 -28 -66 -15 -14 10 -15 14 -5 15 8 0 11 3 8 6 -4 4 3 16 16 26 27
24 138 133 153 151 29 34 45 80 39 108 -7 30 -47 69 -68 65 -40 -9 -67 -19
-67 -27 0 -5 -6 -9 -13 -9 -6 0 -50 -25 -96 -55 -46 -30 -88 -55 -93 -55 -11
0 -10 33 2 64 7 19 6 26 -2 26 -6 0 -8 3 -5 6 12 13 -13 42 -40 47 -36 7 -75
-10 -179 -78 l-85 -55 6 43 c8 53 -16 90 -59 90 -34 0 -138 -71 -222 -150
-143 -136 -240 -210 -283 -218 -17 -3 -31 -2 -31 3 0 4 18 30 41 57 45 55 117
141 133 159 6 6 45 50 86 96 91 103 77 87 180 200 47 51 94 106 106 121 11 16
24 26 27 22 4 -3 7 -2 7 3 0 9 12 24 98 123 91 105 124 151 110 152 -83 7 -77
10 -147 -65z m-922 -560 c8 -10 9 -16 1 -21 -6 -3 -8 -10 -5 -14 10 -18 -107
-154 -187 -217 -31 -24 -108 -65 -108 -57 0 4 -4 2 -9 -6 -7 -11 -13 -9 -30 8
-20 20 -20 22 -3 49 71 118 157 208 235 247 57 28 89 32 106 11z m1970 -4 c11
-20 4 -62 -10 -62 -5 0 -9 -6 -9 -13 0 -16 -101 -122 -155 -162 -22 -16 -42
-33 -45 -36 -7 -8 -73 -40 -91 -44 -30 -6 -38 27 -17 73 11 23 24 42 29 42 5
0 9 7 9 15 0 24 134 150 191 178 62 32 85 34 98 9z"/>
<path d="M84 3161 c-28 -5 -41 -18 -46 -46 -3 -15 1 -30 10 -37 12 -10 1333
-13 6619 -13 5859 0 6605 2 6613 15 15 23 12 56 -7 71 -13 12 -1036 14 -6593
14 -3617 0 -6585 -2 -6596 -4z"/>
<path d="M5830 2778 c-67 -36 -92 -58 -68 -58 9 0 26 -8 38 -18 22 -18 22 -25
24 -200 0 -100 -2 -182 -6 -182 -4 0 -5 -7 -2 -15 7 -17 -32 -85 -49 -86 -7 0
-3 -4 8 -9 16 -6 158 -5 214 2 14 1 10 5 -43 43 -16 12 -19 28 -20 94 -1 45
-5 81 -9 81 -5 0 -5 5 -1 12 10 16 11 109 1 115 -4 2 -4 9 -1 15 6 9 8 106 5
174 -1 12 -9 31 -18 42 -18 20 -18 20 -73 -10z"/>
<path d="M6303 2790 c-50 -23 -80 -57 -102 -116 -31 -83 -14 -172 42 -220 32
-28 51 -34 120 -35 31 -1 57 -5 57 -9 0 -4 -7 -23 -15 -42 -23 -57 -112 -124
-189 -142 -35 -9 -32 -12 17 -20 119 -19 255 93 311 255 37 106 19 215 -48
287 -48 54 -129 71 -193 42z m124 -79 c24 -36 39 -123 29 -174 -14 -74 -114
-77 -150 -5 -38 75 -29 169 20 207 33 26 72 15 101 -28z"/>
<path d="M6813 2791 c-54 -29 -79 -56 -96 -101 -34 -89 -19 -197 32 -238 41
-32 108 -47 136 -30 6 3 20 2 33 -3 23 -9 23 -9 5 -40 -41 -71 -91 -115 -148
-133 -57 -18 -60 -22 -47 -44 7 -10 48 -11 60 -1 1 1 10 2 20 3 41 3 129 60
169 110 41 51 79 123 89 169 18 84 -3 190 -51 252 -45 60 -144 87 -202 56z
m93 -49 c32 -17 64 -94 64 -151 0 -46 -15 -99 -29 -102 -28 -6 -60 -5 -83 3
-78 27 -93 206 -21 250 29 17 38 18 69 0z"/>
<path d="M7334 2801 c-3 -3 -9 -6 -12 -6 -4 0 -24 -10 -45 -22 -41 -25 -70
-78 -65 -121 3 -25 4 -25 53 21 44 42 53 46 89 42 30 -3 48 -12 68 -34 64 -72
17 -190 -138 -346 -84 -84 -101 -110 -81 -122 19 -12 297 -12 323 -1 23 11 36
34 39 73 4 38 -4 44 -38 27 -32 -17 -168 -24 -182 -10 -5 5 113 159 145 188
23 21 57 125 54 165 -4 59 -29 99 -82 129 -33 18 -116 29 -128 17z"/>
</g>
</svg>
